<svg width="60" height="60" viewBox="0 0 60 60" fill="none" xmlns="http://www.w3.org/2000/svg">
<rect x="0.5" y="0.5" width="59" height="59" rx="29.5" fill="white"/>
<rect x="0.5" y="0.5" width="59" height="59" rx="29.5" stroke="#D8DADC"/>
<path d="M35.8169 30.534C35.8081 28.9008 36.537 27.668 38.0122 26.7601C37.1868 25.563 35.9399 24.9043 34.2934 24.7753C32.7348 24.6506 31.0313 25.6965 30.4078 25.6965C29.7492 25.6965 28.2389 24.8198 27.0535 24.8198C24.6036 24.8598 22 26.8002 22 30.7477C22 31.9137 22.2107 33.1182 22.6322 34.3614C23.1942 35.9947 25.2226 40 27.3389 39.9332C28.4453 39.9065 29.2268 39.1366 30.6669 39.1366C32.063 39.1366 32.7875 39.9332 34.0212 39.9332C36.155 39.9021 37.9902 36.2617 38.5259 34.6239C35.6633 33.2577 35.8169 30.6186 35.8169 30.534ZM33.3319 23.2265C34.5305 21.7846 34.4207 20.4717 34.3856 20C33.3275 20.0623 32.1026 20.7299 31.4045 21.5532C30.6361 22.4344 30.1839 23.5247 30.2805 24.753C31.4264 24.842 32.4714 24.2457 33.3319 23.2265Z" fill="black"/>
</svg>
