<svg width="62" height="61" viewBox="0 0 62 61" fill="none" xmlns="http://www.w3.org/2000/svg">
<rect x="0.5" y="0.5" width="60.4389" height="59.8604" rx="29.9302" fill="white"/>
<rect x="0.5" y="0.5" width="60.4389" height="59.8604" rx="29.9302" stroke="#E0E0E9"/>
<path d="M30.7195 19C24.2478 19 19 24.2469 19 30.7195C19 35.8976 22.358 40.2905 27.0146 41.8402C27.6002 41.9487 27.8153 41.586 27.8153 41.2764C27.8153 40.997 27.8044 40.0737 27.7994 39.0945C24.5389 39.8034 23.851 37.7117 23.851 37.7117C23.3179 36.3571 22.5497 35.997 22.5497 35.997C21.4865 35.2696 22.6299 35.2844 22.6299 35.2844C23.8067 35.3672 24.4264 36.4922 24.4264 36.4922C25.4717 38.2839 27.168 37.7659 27.8368 37.4665C27.942 36.7089 28.2457 36.192 28.5809 35.8993C25.9779 35.6029 23.2414 34.598 23.2414 30.1075C23.2414 28.828 23.6992 27.7825 24.449 26.9618C24.3273 26.6666 23.9261 25.4746 24.5625 23.8603C24.5625 23.8603 25.5466 23.5453 27.7862 25.0617C28.7209 24.8019 29.7235 24.6718 30.7195 24.6673C31.7155 24.6718 32.7188 24.8019 33.6554 25.0617C35.8924 23.5453 36.8751 23.8603 36.8751 23.8603C37.513 25.4746 37.1117 26.6666 36.99 26.9618C37.7414 27.7825 38.1961 28.8279 38.1961 30.1075C38.1961 34.6087 35.4545 35.5999 32.8449 35.89C33.2652 36.2537 33.6397 36.9669 33.6397 38.0602C33.6397 39.6283 33.6261 40.8904 33.6261 41.2764C33.6261 41.5883 33.8371 41.9537 34.4312 41.8387C39.0852 40.2872 42.439 35.8959 42.439 30.7195C42.439 24.2469 37.1918 19 30.7195 19Z" fill="#24292F"/>
<path d="M23.3892 35.6943C23.3635 35.7525 23.2717 35.77 23.1884 35.7301C23.1034 35.6919 23.0556 35.6124 23.0831 35.554C23.1084 35.4941 23.2001 35.4773 23.285 35.5176C23.3702 35.5557 23.4187 35.6359 23.3892 35.6943ZM23.9657 36.2087C23.9098 36.2605 23.8005 36.2364 23.7264 36.1546C23.6497 36.0728 23.6354 35.9636 23.6921 35.911C23.7497 35.8592 23.8557 35.8834 23.9325 35.9652C24.0092 36.0478 24.0241 36.1564 23.9656 36.2088M24.3612 36.8668C24.2893 36.9167 24.1719 36.8699 24.0993 36.7657C24.0276 36.6616 24.0276 36.5365 24.1009 36.4865C24.1737 36.4364 24.2893 36.4814 24.3629 36.5848C24.4345 36.6908 24.4345 36.8158 24.3611 36.8669M25.03 37.629C24.9657 37.6998 24.829 37.6809 24.7288 37.5842C24.6264 37.4897 24.5978 37.3556 24.6622 37.2847C24.7272 37.2138 24.8648 37.2337 24.9657 37.3296C25.0675 37.4239 25.0985 37.559 25.0301 37.629M25.8943 37.8864C25.8661 37.9781 25.7343 38.0199 25.6016 37.9809C25.469 37.9407 25.3823 37.8332 25.409 37.7404C25.4366 37.6481 25.569 37.6046 25.7027 37.6463C25.835 37.6863 25.922 37.793 25.8944 37.8864M26.8782 37.9955C26.8815 38.0922 26.7689 38.1723 26.6296 38.1741C26.4894 38.1771 26.3761 38.0989 26.3746 38.0039C26.3746 37.9063 26.4846 37.8268 26.6247 37.8245C26.764 37.8218 26.8782 37.8995 26.8782 37.9955ZM27.8446 37.9585C27.8613 38.0528 27.7644 38.1496 27.6261 38.1754C27.4901 38.2002 27.3641 38.142 27.3468 38.0485C27.3298 37.9518 27.4286 37.8551 27.5643 37.83C27.7029 37.8059 27.8269 37.8626 27.8446 37.9585Z" fill="#24292F"/>
</svg>
