<svg xmlns="http://www.w3.org/2000/svg" width="20" height="20" fill="none"><path fill="#000" fill-opacity=".6" fill-rule="evenodd" d="M2.977 2 1.878 3.081 16.023 17l1.099-1.082L2.977 2Z" clip-rule="evenodd"/><path fill="#000" fill-opacity=".6" d="m4.2 5.366 1.035 1.018a11.826 11.826 0 0 0-2.617 3.164l-.002.003c1.623 2.67 4.198 5.194 7.449 4.811a6.512 6.512 0 0 0 2.443-.82l1.048 1.03c-1.458.92-3.129 1.408-4.94 1.167C5.353 15.305 2.684 12.67 1 9.576c.79-1.565 1.87-3.061 3.2-4.21Zm2.353-1.509c.913-.4 1.901-.635 2.956-.652.058 0 .754.032 1.069.083.198.032.395.072.589.122 3.096.794 5.39 3.37 6.833 6.024a14.477 14.477 0 0 1-2.343 3.382l-1.003-.988c.698-.74 1.28-1.564 1.728-2.364 0 0-.45-.713-.792-1.16-.22-.288-.451-.568-.694-.837a23.355 23.355 0 0 0-1.113-1.084C12.595 5.378 11.2 4.59 9.526 4.603a5.782 5.782 0 0 0-1.863.347l-1.11-1.093Z"/><path fill="#000" fill-opacity=".6" fill-rule="evenodd" d="m7.017 8.138.798.786 3.074 3.025a2.867 2.867 0 0 1-1.39.356c-1.57 0-2.844-1.255-2.844-2.8 0-.496.131-.963.362-1.367Zm2.43-1.432H9.5c1.57 0 2.845 1.254 2.845 2.799v.052L9.447 6.706Z" clip-rule="evenodd"/></svg>