<svg xmlns="http://www.w3.org/2000/svg" width="20" height="20" fill="none"><path fill="#000" fill-opacity=".6" fill-rule="evenodd" d="M9.626 3c3.753.054 6.832 3.482 8.374 6.432 0 0-.543 1.129-1.052 1.85-.246.35-.505.69-.777 1.02a14.78 14.78 0 0 1-.603.684c-1.859 1.984-4.528 3.463-7.347 2.889C5.09 15.237 2.535 12.51 1 9.578c0 0 .545-1.13 1.057-1.85A16.24 16.24 0 0 1 3.379 6.1C5.021 4.342 7.129 2.988 9.626 3Zm-.013 1.443c-2.09-.008-3.829 1.178-5.204 2.65-.187.2-.368.406-.542.618-.23.278-.45.566-.658.86a9.874 9.874 0 0 0-.594.981c1.354 2.312 3.386 4.399 5.886 4.909 2.329.474 4.503-.83 6.039-2.47.188-.2.369-.406.544-.618.249-.3.485-.61.71-.93.208-.295.422-.667.591-.983-1.404-2.389-3.808-4.97-6.772-5.017Z" clip-rule="evenodd"/><path fill="#000" fill-opacity=".6" fill-rule="evenodd" d="M9.5 6.614c1.57 0 2.846 1.296 2.846 2.891 0 1.596-1.276 2.891-2.846 2.891s-2.845-1.295-2.845-2.89c0-1.596 1.275-2.892 2.845-2.892Z" clip-rule="evenodd"/></svg>