<svg width="47" height="41" viewBox="0 0 47 41" fill="none" xmlns="http://www.w3.org/2000/svg">
<path opacity="0.8" d="M20 3C29.3888 3 37 10.6112 37 20C37 29.3888 29.3888 37 20 37C10.6112 37 3 29.3888 3 20C3 10.6112 10.6112 3 20 3Z" fill="white" stroke="#EBA6A9" stroke-width="6"/>
<mask id="path-2-outside-1_98_461" maskUnits="userSpaceOnUse" x="22" y="12" width="24" height="28" fill="black">
<rect fill="white" x="22" y="12" width="24" height="28"/>
<path d="M44.4356 25.896C44.4356 28.776 43.8956 31.188 42.8156 33.132C41.7596 35.076 40.2356 36.54 38.2436 37.524C36.2516 38.508 33.8396 39 31.0076 39H23.8436V13.296H31.7636C34.3556 13.296 36.5996 13.776 38.4956 14.736C40.3916 15.696 41.8556 17.112 42.8876 18.984C43.9196 20.832 44.4356 23.136 44.4356 25.896ZM41.0156 26.004C41.0156 23.724 40.6316 21.852 39.8636 20.388C39.1196 18.924 38.0156 17.844 36.5516 17.148C35.1116 16.428 33.3596 16.068 31.2956 16.068H27.0836V36.228H30.5756C34.0556 36.228 36.6596 35.376 38.3876 33.672C40.1396 31.944 41.0156 29.388 41.0156 26.004Z"/>
</mask>
<path d="M44.4356 25.896C44.4356 28.776 43.8956 31.188 42.8156 33.132C41.7596 35.076 40.2356 36.54 38.2436 37.524C36.2516 38.508 33.8396 39 31.0076 39H23.8436V13.296H31.7636C34.3556 13.296 36.5996 13.776 38.4956 14.736C40.3916 15.696 41.8556 17.112 42.8876 18.984C43.9196 20.832 44.4356 23.136 44.4356 25.896ZM41.0156 26.004C41.0156 23.724 40.6316 21.852 39.8636 20.388C39.1196 18.924 38.0156 17.844 36.5516 17.148C35.1116 16.428 33.3596 16.068 31.2956 16.068H27.0836V36.228H30.5756C34.0556 36.228 36.6596 35.376 38.3876 33.672C40.1396 31.944 41.0156 29.388 41.0156 26.004Z" fill="#DCCEF9"/>
<path d="M42.8156 33.132L41.9414 32.6463L41.9368 32.6547L42.8156 33.132ZM38.2436 37.524L37.8007 36.6274H37.8007L38.2436 37.524ZM23.8436 39H22.8436V40H23.8436V39ZM23.8436 13.296V12.296H22.8436V13.296H23.8436ZM42.8876 18.984L42.0118 19.4668L42.0145 19.4716L42.8876 18.984ZM39.8636 20.388L38.972 20.8411L38.978 20.8525L39.8636 20.388ZM36.5516 17.148L36.1043 18.0424L36.1132 18.0469L36.1222 18.0511L36.5516 17.148ZM27.0836 16.068V15.068H26.0836V16.068H27.0836ZM27.0836 36.228H26.0836V37.228H27.0836V36.228ZM38.3876 33.672L39.0897 34.384L39.0898 34.384L38.3876 33.672ZM44.4356 25.896H43.4356C43.4356 28.6549 42.918 30.8884 41.9414 32.6464L42.8156 33.132L43.6897 33.6176C44.8731 31.4876 45.4356 28.8971 45.4356 25.896H44.4356ZM42.8156 33.132L41.9368 32.6547C40.9798 34.4165 39.6085 35.7344 37.8007 36.6274L38.2436 37.524L38.6865 38.4206C40.8627 37.3456 42.5393 35.7355 43.6943 33.6093L42.8156 33.132ZM38.2436 37.524L37.8007 36.6274C35.9789 37.5273 33.7269 38 31.0076 38V39V40C33.9523 40 36.5242 39.4887 38.6865 38.4206L38.2436 37.524ZM31.0076 39V38H23.8436V39V40H31.0076V39ZM23.8436 39H24.8436V13.296H23.8436H22.8436V39H23.8436ZM23.8436 13.296V14.296H31.7636V13.296V12.296H23.8436V13.296ZM31.7636 13.296V14.296C34.2326 14.296 36.3153 14.753 38.0438 15.6282L38.4956 14.736L38.9473 13.8438C36.8838 12.799 34.4785 12.296 31.7636 12.296V13.296ZM38.4956 14.736L38.0438 15.6282C39.7595 16.4968 41.0762 17.7696 42.0118 19.4668L42.8876 18.984L43.7633 18.5012C42.6349 16.4544 41.0237 14.8952 38.9473 13.8438L38.4956 14.736ZM42.8876 18.984L42.0145 19.4716C42.9417 21.132 43.4356 23.2563 43.4356 25.896H44.4356H45.4356C45.4356 23.0157 44.8974 20.532 43.7607 18.4964L42.8876 18.984ZM41.0156 26.004H42.0156C42.0156 23.6203 41.6153 21.5747 40.7491 19.9235L39.8636 20.388L38.978 20.8525C39.6478 22.1293 40.0156 23.8277 40.0156 26.004H41.0156ZM39.8636 20.388L40.755 19.9349C39.9124 18.2768 38.6473 17.0371 36.9809 16.2449L36.5516 17.148L36.1222 18.0511C37.3839 18.6509 38.3268 19.5712 38.9721 20.841L39.8636 20.388ZM36.5516 17.148L36.9988 16.2536C35.3864 15.4474 33.4724 15.068 31.2956 15.068V16.068V17.068C33.2467 17.068 34.8367 17.4086 36.1043 18.0424L36.5516 17.148ZM31.2956 16.068V15.068H27.0836V16.068V17.068H31.2956V16.068ZM27.0836 16.068H26.0836V36.228H27.0836H28.0836V16.068H27.0836ZM27.0836 36.228V37.228H30.5756V36.228V35.228H27.0836V36.228ZM30.5756 36.228V37.228C34.2039 37.228 37.1064 36.3398 39.0897 34.384L38.3876 33.672L37.6854 32.96C36.2127 34.4122 33.9072 35.228 30.5756 35.228V36.228ZM38.3876 33.672L39.0898 34.384C41.0948 32.4064 42.0156 29.5528 42.0156 26.004H41.0156H40.0156C40.0156 29.2232 39.1843 31.4816 37.6854 32.96L38.3876 33.672Z" fill="#DCCEF9" mask="url(#path-2-outside-1_98_461)"/>
</svg>
