<svg width="60" height="60" viewBox="0 0 60 60" fill="none" xmlns="http://www.w3.org/2000/svg">
<rect x="0.5" y="0.5" width="59" height="59" rx="29.5" fill="white"/>
<rect x="0.5" y="0.5" width="59" height="59" rx="29.5" stroke="#D8DADC"/>
<g clip-path="url(#clip0_98_451)">
<path d="M39.174 29.7106C39.174 28.9317 39.1121 28.3633 38.9782 27.7739H30.2725V31.2894H35.3825C35.2796 32.163 34.7232 33.4787 33.4869 34.3628L33.4695 34.4805L36.2221 36.659L36.4128 36.6784C38.1643 35.0259 39.174 32.5945 39.174 29.7106Z" fill="#4285F4"/>
<path d="M30.2724 38.9729C32.7759 38.9729 34.8776 38.1308 36.4128 36.6783L33.4868 34.3627C32.7038 34.9205 31.6529 35.31 30.2724 35.31C27.8204 35.31 25.7392 33.6575 24.9974 31.3735L24.8886 31.383L22.0264 33.6459L21.989 33.7522C23.5138 36.8467 26.6458 38.9729 30.2724 38.9729Z" fill="#34A853"/>
<path d="M24.9974 31.3736C24.8017 30.7842 24.6884 30.1526 24.6884 29.5C24.6884 28.8474 24.8017 28.2159 24.9871 27.6265L24.9819 27.501L22.0839 25.2017L21.989 25.2477C21.3606 26.5319 21 27.9739 21 29.5C21 31.0262 21.3606 32.4682 21.989 33.7523L24.9974 31.3736Z" fill="#FBBC05"/>
<path d="M30.2724 23.6902C32.0135 23.6902 33.188 24.4585 33.8577 25.1006L36.4746 22.4903C34.8674 20.9641 32.7759 20.0273 30.2724 20.0273C26.6458 20.0273 23.5138 22.1535 21.989 25.2479L24.9871 27.6267C25.7392 25.3427 27.8204 23.6902 30.2724 23.6902Z" fill="#EB4335"/>
</g>
<defs>
<clipPath id="clip0_98_451">
<rect x="21" y="20" width="18.1739" height="19" rx="9.08696" fill="white"/>
</clipPath>
</defs>
</svg>
